# xmcd
#
# Track frame offsets: 
#        150
#        22634
#        50571
#        71129
#        98691
#        115878
#        139090
#        164430
#        190431
#        215704
#
# Disc length: 3187 seconds
#
# Revision: 0
# Processed by: cddbd v1.5.2PL0 Copyright (c) Steve Scherf et al.
# Submitted via: ExactAudioCopy v1.0b3
#
DISCID=8f0c710a
DTITLE=Tuan Vu, Son Tuyen - Do Chieu
DYEAR=1993
DGENRE=
TTITLE0=Tuan Vu - Do chieu
TTITLE1=Nhung doi hoa sim
TTITLE2=Tuan Vu - Kiep ngheo
TTITLE3=Pho dem
TTITLE4=Tuan Vu - Ngai ngung
TTITLE5=Nguoi ngoai pho
TTITLE6=Tuan Vu - Xom dem
TTITLE7=Son Tuyen - Ke chuyen trong dem
TTITLE8=Tuan Vu - Tinh khuc chieu mua
TTITLE9=Yeu mot minh
EXTD=
EXTT0=
EXTT1=
EXTT2=
EXTT3=
EXTT4=
EXTT5=
EXTT6=
EXTT7=
EXTT8=
EXTT9=
PLAYORDER=
